# xmcd
# 
# Track frame offsets:
#     150
#     13407
#     27448
#     44579
#     60730
#     81198
#     95064
#     113217
#     123763
#     138149
#     153960
#     188765
#     204233
#     220258
#     231282
#     243421
#     259776
#     269865
# 
# Disc length: 3808
# 
# Revision: 3
# Processed by: cddbd v1.5.2PL0 Copyright (c) Steve Scherf et al.
# Submitted via: fre:ac v1.0.31
# 
DISCID=060ede12
DTITLE=70's - Outlaws and Armadillos Disc 1
DYEAR=1970
DGENRE=Country
TTITLE0=Are You Sure Hank Done It This Way
TTITLE1=Why You Been Gone So Long
TTITLE2=Me and Paul
TTITLE3=Back in the Goodle Days
TTITLE4=Desperados Waiting for a Train
TTITLE5=Rex's Blues
TTITLE6=No Place to Fall
TTITLE7=I Ain't Looking for the Answers Anymore
TTITLE8=Marie Laveau
TTITLE9=Rode Hard and Put Up Wet
TTITLE10=London Homesick Blues
TTITLE11=Groover's Paradise
TTITLE12=I Had My Hopes Up High
TTITLE13=Joe, Don't Let Your Music Kill You
TTITLE14=Old Five and Dimers Like Me
TTITLE15=Honky Tonk Heroes
TTITLE16=You Asked Me To
TTITLE17=Allegheny
EXTD=
EXTT0=
EXTT1=
EXTT2=
EXTT3=
EXTT4=
EXTT5=
EXTT6=
EXTT7=
EXTT8=
EXTT9=
EXTT10=
EXTT11=
EXTT12=
EXTT13=
EXTT14=
EXTT15=
EXTT16=
EXTT17=
PLAYORDER=
